<svg width="35" height="20" viewBox="0 0 35 20" fill="none" xmlns="http://www.w3.org/2000/svg">
<path d="M25 11C25.5523 11 26 10.5523 26 10C26 9.44772 25.5523 9 25 9V11ZM9.29289 9.29289C8.90237 9.68342 8.90237 10.3166 9.29289 10.7071L15.6569 17.0711C16.0474 17.4616 16.6805 17.4616 17.0711 17.0711C17.4616 16.6805 17.4616 16.0474 17.0711 15.6569L11.4142 10L17.0711 4.34315C17.4616 3.95262 17.4616 3.31946 17.0711 2.92893C16.6805 2.53841 16.0474 2.53841 15.6569 2.92893L9.29289 9.29289ZM25 9L10 9V11L25 11V9Z" fill="black"/>
</svg>
