<svg width="27" height="26" viewBox="0 0 27 26" fill="none" xmlns="http://www.w3.org/2000/svg">
<path d="M15.7056 6.77529C15.94 6.96578 15.94 6.96578 16.0963 7.16605C16.1221 7.19184 16.1478 7.21763 16.1744 7.2442C16.1825 7.39148 16.185 7.53907 16.1854 7.68658C16.1861 7.83071 16.1861 7.83071 16.1867 7.97777C16.1868 8.08525 16.1869 8.19273 16.187 8.30021C16.1874 8.41264 16.1878 8.52507 16.1882 8.63751C16.1892 8.94383 16.1897 9.25015 16.1901 9.55648C16.1903 9.74781 16.1906 9.93914 16.191 10.1305C16.192 10.7289 16.1928 11.3274 16.1931 11.9258C16.1934 12.6169 16.1948 13.308 16.1971 13.9991C16.1988 14.533 16.1995 15.0669 16.1996 15.6007C16.1997 15.9197 16.2002 16.2387 16.2016 16.5576C16.2029 16.8579 16.203 17.1581 16.2024 17.4584C16.2023 17.5685 16.2026 17.6786 16.2034 17.7886C16.2044 17.9392 16.2038 18.0898 16.2031 18.2404C16.2032 18.3246 16.2034 18.4088 16.2035 18.4955C16.1691 18.7753 16.0863 18.9612 15.94 19.2013C15.6261 19.4107 15.3715 19.412 15.0025 19.3576C14.7782 19.2174 14.6516 19.1245 14.5337 18.8887C14.5257 18.7361 14.5228 18.5832 14.5222 18.4304C14.5216 18.3328 14.5211 18.2352 14.5205 18.1346C14.5203 18.0258 14.5201 17.917 14.5199 17.8082C14.5194 17.6941 14.5189 17.58 14.5183 17.4659C14.517 17.1554 14.5161 16.8449 14.5155 16.5343C14.5151 16.3404 14.5146 16.1465 14.5141 15.9525C14.5126 15.3459 14.5115 14.7394 14.5109 14.1328C14.5101 13.4322 14.5081 12.7317 14.5049 12.0311C14.5025 11.4899 14.5014 10.9486 14.5011 10.4074C14.5009 10.084 14.5002 9.76062 14.4983 9.43725C14.4965 9.133 14.4961 8.82878 14.4969 8.52452C14.497 8.41291 14.4965 8.30128 14.4954 8.18967C14.494 8.03719 14.4948 7.88469 14.4956 7.7322C14.4954 7.6469 14.4952 7.56159 14.495 7.4737C14.543 7.18926 14.648 7.05903 14.8462 6.85344C15.1173 6.71785 15.4099 6.72778 15.7056 6.77529Z" fill="white"/>
<path d="M11.8728 6.77628C12.0971 6.91647 12.2237 7.00937 12.3416 7.24518C12.3498 7.39759 12.3529 7.55027 12.3536 7.70289C12.3543 7.80041 12.355 7.89792 12.3557 7.9984C12.356 8.10707 12.3564 8.21574 12.3567 8.32441C12.3573 8.4384 12.3579 8.55238 12.3586 8.66637C12.3607 9.04131 12.3619 9.41625 12.363 9.79119C12.3634 9.92022 12.3638 10.0493 12.3642 10.1783C12.3659 10.715 12.3674 11.2517 12.3683 11.7885C12.3695 12.5579 12.3721 13.3272 12.3766 14.0966C12.3796 14.6374 12.3811 15.1783 12.3815 15.7192C12.3818 16.0422 12.3828 16.3653 12.3853 16.6884C12.3877 16.9924 12.3881 17.2964 12.3872 17.6005C12.3872 17.712 12.3879 17.8234 12.3892 17.9349C12.4003 18.8816 12.4003 18.8816 12.1557 19.1904C11.8713 19.4241 11.7102 19.4212 11.3555 19.4001C11.0721 19.3368 10.9456 19.1989 10.779 18.9678C10.6956 18.7175 10.6907 18.5379 10.6899 18.2746C10.6895 18.1789 10.689 18.0831 10.6886 17.9844C10.6885 17.8781 10.6884 17.7718 10.6883 17.6656C10.688 17.5537 10.6876 17.4419 10.6871 17.3301C10.6861 17.0262 10.6856 16.7223 10.6853 16.4184C10.685 16.2286 10.6847 16.0388 10.6844 15.8489C10.6833 15.255 10.6825 14.6611 10.6822 14.0672C10.6819 13.3815 10.6805 12.6958 10.6783 12.0102C10.6766 11.4802 10.6758 10.9502 10.6757 10.4202C10.6756 10.1037 10.6751 9.78713 10.6737 9.47057C10.6724 9.17281 10.6723 8.87506 10.673 8.57729C10.673 8.46806 10.6727 8.35884 10.6719 8.24961C10.6709 8.10038 10.6715 7.95115 10.6722 7.80192C10.6721 7.71844 10.672 7.63496 10.6718 7.54896C10.7055 7.28746 10.7789 7.1433 10.9353 6.93258C11.2493 6.72321 11.5038 6.72188 11.8728 6.77628Z" fill="white"/>
<path d="M7.3441 6.77512C7.5594 6.94561 7.69067 7.0777 7.81287 7.32217C7.82087 7.4726 7.82377 7.62331 7.82437 7.77395C7.82493 7.87015 7.82549 7.96635 7.82606 8.06547C7.82629 8.17266 7.8265 8.27986 7.8267 8.38706C7.82719 8.4995 7.82771 8.61195 7.82826 8.72439C7.82962 9.03039 7.83044 9.33638 7.83109 9.64238C7.83149 9.83354 7.83196 10.0247 7.83245 10.2159C7.83394 10.8139 7.83505 11.4119 7.83571 12.01C7.83647 12.7004 7.83852 13.3908 7.84168 14.0812C7.84404 14.6148 7.8452 15.1483 7.84545 15.6819C7.84564 16.0006 7.84634 16.3193 7.8483 16.638C7.85012 16.9379 7.85045 17.2379 7.84965 17.5378C7.84961 17.6478 7.85011 17.7577 7.85118 17.8677C7.86073 18.9045 7.86073 18.9045 7.50036 19.2793C7.22904 19.415 6.93689 19.4045 6.64094 19.3574C6.42564 19.1869 6.29436 19.0548 6.17216 18.8104C6.16416 18.6588 6.16126 18.5069 6.16066 18.3551C6.1601 18.2581 6.15955 18.1611 6.15897 18.0612C6.15875 17.9532 6.15854 17.8451 6.15833 17.7371C6.15784 17.6237 6.15732 17.5104 6.15678 17.397C6.15542 17.0886 6.15459 16.7802 6.15395 16.4718C6.15355 16.2792 6.15307 16.0865 6.15258 15.8939C6.15109 15.2914 6.14998 14.6889 6.14933 14.0864C6.14857 13.3906 6.14651 12.6948 6.14335 11.999C6.141 11.4614 6.13984 10.9238 6.13958 10.3862C6.1394 10.065 6.13869 9.74379 6.13673 9.4226C6.13491 9.1204 6.13458 8.81824 6.13538 8.51604C6.13542 8.40517 6.13493 8.29431 6.13386 8.18345C6.13248 8.03199 6.13321 7.88052 6.13405 7.72906C6.13387 7.64433 6.13368 7.5596 6.13349 7.4723C6.18153 7.18871 6.28718 7.05838 6.48468 6.85327C6.75599 6.71757 7.04814 6.72808 7.3441 6.77512Z" fill="white"/>
<path d="M20.1364 6.7481C20.3913 6.7897 20.5268 6.90392 20.701 7.08909C20.8067 7.30055 20.7899 7.46625 20.7911 7.7031C20.7918 7.80062 20.7925 7.89813 20.7932 7.9986C20.7935 8.10728 20.7939 8.21595 20.7942 8.32462C20.7948 8.43861 20.7954 8.55259 20.7961 8.66658C20.7982 9.04152 20.7994 9.41646 20.8005 9.7914C20.8009 9.92043 20.8013 10.0495 20.8017 10.1785C20.8034 10.7152 20.8049 11.252 20.8058 11.7887C20.807 12.5581 20.8096 13.3274 20.8141 14.0968C20.8171 14.6377 20.8186 15.1785 20.819 15.7194C20.8193 16.0424 20.8203 16.3655 20.8228 16.6886C20.8252 16.9926 20.8256 17.2966 20.8247 17.6007C20.8247 17.7122 20.8254 17.8236 20.8267 17.9351C20.8378 18.8818 20.8378 18.8818 20.5932 19.1906C20.3088 19.4243 20.1477 19.4215 19.793 19.4003C19.5096 19.337 19.3831 19.1991 19.2165 18.968C19.1334 18.7185 19.1282 18.5401 19.1274 18.2778C19.127 18.1827 19.1265 18.0876 19.1261 17.9896C19.126 17.8841 19.1259 17.7785 19.1258 17.6729C19.1255 17.5619 19.1251 17.4508 19.1246 17.3398C19.1236 17.038 19.1231 16.7362 19.1228 16.4344C19.1225 16.2459 19.1222 16.0574 19.1219 15.8689C19.1208 15.279 19.12 14.6892 19.1197 14.0994C19.1194 13.4184 19.118 12.7375 19.1158 12.0565C19.1141 11.5302 19.1133 11.0039 19.1132 10.4776C19.1131 10.1632 19.1126 9.84883 19.1112 9.53446C19.1099 9.23874 19.1098 8.94305 19.1105 8.64733C19.1105 8.53886 19.1102 8.43039 19.1094 8.32193C19.1084 8.17372 19.109 8.02551 19.1097 7.87731C19.1096 7.79441 19.1095 7.71151 19.1093 7.62609C19.1499 7.31255 19.2904 7.11494 19.4833 6.87143C19.6901 6.71297 19.8848 6.74031 20.1364 6.7481Z" fill="white"/>
<path d="M3.58353 0.667998C3.69347 0.666493 3.69347 0.666493 3.80562 0.664958C3.88392 0.664381 3.96221 0.663804 4.04289 0.663209C4.12428 0.662578 4.20567 0.661947 4.28952 0.661297C4.46144 0.660218 4.63337 0.659379 4.80529 0.658763C4.98078 0.657861 5.15627 0.656261 5.33175 0.653955C5.58577 0.650618 5.83973 0.649356 6.09377 0.648555C6.17176 0.647187 6.24974 0.645819 6.33008 0.644409C6.81557 0.645914 7.10418 0.708689 7.50071 0.994434C7.68928 1.24047 7.69335 1.4726 7.65696 1.77594C7.52961 2.02129 7.43159 2.19384 7.19029 2.3351C6.83306 2.43488 6.48369 2.42289 6.11453 2.42252C5.94738 2.42411 5.78024 2.42574 5.6131 2.4274C5.35062 2.42917 5.08815 2.43046 4.82566 2.43092C4.57163 2.43166 4.31766 2.4343 4.06364 2.43717C3.98566 2.43678 3.90767 2.43639 3.82733 2.43598C3.34612 2.44274 3.03768 2.4865 2.65671 2.79191C2.37889 3.23839 2.39008 3.6669 2.39333 4.18214C2.39197 4.34597 2.39059 4.5098 2.38921 4.67363C2.38842 4.9302 2.38814 5.18675 2.38827 5.44331C2.38799 5.69211 2.38586 5.94085 2.38356 6.18964C2.3842 6.26625 2.38484 6.34286 2.3855 6.4218C2.38176 6.76333 2.37747 6.95801 2.19524 7.25395C1.92052 7.50397 1.70968 7.51165 1.34896 7.50874C1.06623 7.46429 0.94722 7.31281 0.78161 7.09021C0.709911 6.87505 0.692148 6.74013 0.688412 6.51774C0.687157 6.44956 0.685902 6.38139 0.684609 6.31115C0.681098 5.99628 0.67792 5.68142 0.676128 5.36654C0.674844 5.20178 0.672725 5.03703 0.669719 4.87229C0.647815 3.66403 0.65437 2.5948 1.45059 1.61476C2.03882 1.02372 2.7476 0.67803 3.58353 0.667998Z" fill="white"/>
<path d="M20.8656 0.657053C20.9788 0.656995 20.9788 0.656995 21.0944 0.656935C21.2538 0.657118 21.4133 0.657875 21.5727 0.659171C21.8146 0.661008 22.0565 0.660779 22.2984 0.660259C22.454 0.660695 22.6095 0.661251 22.7651 0.661938C22.8365 0.661867 22.9079 0.661795 22.9814 0.661722C23.9586 0.6723 24.7126 0.892218 25.4495 1.55487C26.3613 2.53375 26.3547 3.78114 26.3489 5.03415C26.348 5.24867 26.3489 5.46313 26.3498 5.67764C26.3497 5.81491 26.3495 5.95219 26.3492 6.08946C26.3496 6.15312 26.3499 6.21679 26.3502 6.28238C26.3466 6.71464 26.3095 7.02256 26.0062 7.3527C25.7153 7.5235 25.4863 7.56388 25.1565 7.48458C24.9463 7.31454 24.8085 7.17895 24.6878 6.93752C24.6802 6.8275 24.6772 6.71714 24.6767 6.60687C24.6759 6.5043 24.6759 6.5043 24.675 6.39966C24.6747 6.3255 24.6744 6.25134 24.674 6.17494C24.6722 6.01802 24.6703 5.86111 24.6684 5.7042C24.6657 5.45674 24.6634 5.20931 24.6623 4.96184C24.6611 4.72305 24.6579 4.48435 24.6545 4.24559C24.6547 4.17238 24.6548 4.09917 24.655 4.02374C24.6442 3.44198 24.5079 3.05175 24.1383 2.60243C23.7724 2.4138 23.4159 2.44201 23.0104 2.44628C22.9235 2.44573 22.8365 2.44518 22.7469 2.44461C22.4693 2.44289 22.1918 2.44313 21.9142 2.44384C21.5487 2.44478 21.1834 2.44371 20.8179 2.4414C20.734 2.44228 20.6501 2.44317 20.5637 2.44408C19.9799 2.44012 19.9799 2.44012 19.677 2.25533C19.4628 2.01546 19.3848 1.87198 19.3506 1.54999C19.3792 1.26972 19.4322 1.1385 19.6094 0.919897C20.024 0.649445 20.3877 0.652279 20.8656 0.657053Z" fill="white"/>
<path d="M25.783 18.5868C26.0626 18.757 26.2056 18.9129 26.3299 19.212C26.3498 19.3719 26.3498 19.3719 26.3501 19.5436C26.3506 19.6083 26.3511 19.673 26.3516 19.7397C26.3513 19.8092 26.351 19.8786 26.3507 19.9501C26.3508 20.0224 26.351 20.0947 26.3511 20.1692C26.3512 20.3223 26.3509 20.4753 26.3503 20.6284C26.3495 20.8604 26.3503 21.0924 26.3513 21.3245C26.3512 21.4737 26.351 21.6229 26.3507 21.772C26.351 21.8405 26.3513 21.909 26.3516 21.9796C26.3444 22.9449 26.1174 23.79 25.451 24.5165C24.7355 25.1767 23.8743 25.3319 22.9383 25.3368C22.8535 25.3375 22.7687 25.3382 22.6813 25.3389C22.5026 25.34 22.3239 25.3407 22.1453 25.341C21.8723 25.3419 21.5994 25.3458 21.3265 25.3497C21.1524 25.3505 20.9784 25.351 20.8044 25.3514C20.7231 25.3529 20.6418 25.3545 20.558 25.356C19.9268 25.3521 19.9268 25.3521 19.6383 25.1197C19.4165 24.875 19.3797 24.7594 19.363 24.4423C19.3899 24.1414 19.5336 23.9696 19.7526 23.7751C19.9524 23.6481 20.062 23.6367 20.2969 23.6353C20.3707 23.6342 20.4445 23.6332 20.5205 23.6321C20.5997 23.6321 20.6789 23.6321 20.7605 23.6321C20.8423 23.6311 20.9242 23.63 21.0086 23.629C21.2702 23.6258 21.5319 23.6241 21.7936 23.6226C22.0549 23.6208 22.3163 23.6186 22.5777 23.6155C22.7403 23.6136 22.9029 23.6124 23.0655 23.612C23.1396 23.6112 23.2136 23.6105 23.2899 23.6096C23.3871 23.6091 23.3871 23.6091 23.4863 23.6086C23.8803 23.5661 24.1186 23.4133 24.3767 23.1195C24.6665 22.6847 24.6225 22.2238 24.6248 21.7177C24.6266 21.564 24.6285 21.4104 24.6305 21.2567C24.6332 21.0154 24.6355 20.7742 24.6365 20.5328C24.6378 20.2993 24.6409 20.0658 24.6443 19.8323C24.6442 19.7603 24.644 19.6884 24.6439 19.6142C24.6502 19.2835 24.6599 19.1026 24.8385 18.8167C25.1245 18.5508 25.4045 18.5337 25.783 18.5868Z" fill="white"/>
<path d="M1.71138 18.5368C1.9586 18.5951 2.09805 18.7029 2.26774 18.8885C2.33857 19.101 2.35625 19.2281 2.35819 19.4469C2.35899 19.5119 2.35979 19.5769 2.36062 19.6438C2.36119 19.7139 2.36176 19.784 2.36235 19.8562C2.36454 20.0054 2.36678 20.1546 2.36906 20.3038C2.37228 20.5383 2.37516 20.7729 2.37723 21.0075C2.3794 21.2343 2.38298 21.4611 2.38676 21.6879C2.38702 21.757 2.38727 21.8262 2.38753 21.8974C2.39814 22.4421 2.45528 22.9836 2.85371 23.3822C3.12774 23.5466 3.33463 23.5874 3.64808 23.5899C3.72189 23.5907 3.79569 23.5915 3.87173 23.5923C3.99112 23.5932 3.99112 23.5932 4.11293 23.594C4.28129 23.5962 4.44966 23.5985 4.61802 23.6008C4.8836 23.604 5.14917 23.6069 5.41476 23.6089C5.67098 23.6111 5.92715 23.6147 6.18335 23.6185C6.30227 23.6188 6.30227 23.6188 6.42359 23.6192C7.11223 23.6312 7.11223 23.6312 7.42426 23.8902C7.62693 24.1267 7.6769 24.2947 7.65376 24.5984C7.60366 24.8903 7.5114 25.0397 7.268 25.2187C7.04406 25.2934 6.90065 25.3076 6.66797 25.3095C6.59387 25.3102 6.51976 25.311 6.44341 25.3117C6.36333 25.3121 6.28325 25.3124 6.20074 25.3127C6.11795 25.3132 6.03516 25.3136 5.94987 25.3141C5.77432 25.3148 5.59876 25.3153 5.42321 25.3156C5.15657 25.3164 4.88999 25.3188 4.62336 25.3213C4.4525 25.3218 4.28165 25.3222 4.11079 25.3225C4.03182 25.3235 3.95285 25.3244 3.87148 25.3254C2.96443 25.3226 2.2327 25.0731 1.56641 24.4488C0.888621 23.7247 0.68208 22.8636 0.673419 21.8973C0.672529 21.8196 0.671638 21.7419 0.67072 21.6618C0.66925 21.4981 0.668225 21.3344 0.667621 21.1708C0.666099 20.9212 0.661244 20.6718 0.656329 20.4222C0.655309 20.2627 0.654488 20.1031 0.653887 19.9435C0.651958 19.8694 0.650029 19.7953 0.648041 19.719C0.651134 19.2561 0.732429 19.0093 1.05504 18.673C1.27494 18.4934 1.4421 18.515 1.71138 18.5368Z" fill="white"/>
</svg>
