<svg width="29" height="30" viewBox="0 0 29 30" fill="none" xmlns="http://www.w3.org/2000/svg">
<path d="M12.7798 0.775321C12.8626 0.773889 12.9453 0.772458 13.0305 0.770984C13.4102 0.767 13.7898 0.763361 14.1695 0.761312C14.369 0.759841 14.5686 0.757415 14.7681 0.754003C15.057 0.74909 15.3458 0.747168 15.6347 0.745867C15.7228 0.743847 15.8109 0.741827 15.9017 0.739746C16.5976 0.741833 17.1821 0.919376 17.7094 1.3903C18.2101 1.91712 18.3379 2.50382 18.4299 3.2038C18.5077 3.86132 18.5077 3.86132 18.7863 4.44564C19.0694 4.65277 19.3677 4.81651 19.6773 4.98024C19.7437 5.0294 19.8101 5.07856 19.8785 5.12921C20.2333 5.30107 20.5375 5.31042 20.9247 5.24755C21.1928 5.14407 21.4282 5.00506 21.6709 4.85216C21.794 4.77786 21.9172 4.70372 22.0406 4.62976C22.0938 4.59663 22.147 4.5635 22.2018 4.52937C22.699 4.249 23.3363 4.30028 23.8842 4.38821C25.0328 4.73822 25.7327 5.98954 26.3847 6.90831C26.5908 7.191 26.8091 7.46323 27.0298 7.73467C27.3673 8.21013 27.4985 8.77064 27.4291 9.34618C27.242 10.1528 26.8355 10.6325 26.2707 11.2173C26.0018 11.5184 25.8374 11.753 25.7807 12.164C25.8247 12.7719 25.8939 13.464 26.2812 13.9478C26.5847 14.1958 26.8906 14.352 27.2453 14.514C27.9258 14.8267 28.5102 15.1649 28.8536 15.8627C29.1828 16.7939 28.8897 17.8549 28.6256 18.7674C28.5703 18.9591 28.518 19.1516 28.4661 19.3443C28.0104 20.9953 28.0104 20.9953 27.3455 21.5419C27.2896 21.5894 27.2337 21.637 27.176 21.686C26.4571 22.1877 25.7869 22.1207 24.9349 22.1033C24.4005 22.1074 24.0393 22.1179 23.6245 22.4771C23.5231 22.5817 23.4247 22.6893 23.3304 22.8004C23.2588 22.8831 23.1871 22.9658 23.1132 23.051C22.8565 23.4104 22.8451 23.7051 22.8849 24.1369C22.9264 24.3307 22.9712 24.5237 23.0186 24.7161C23.2044 25.484 23.2113 26.0771 22.8849 26.8099C22.4947 27.4231 21.8526 27.7495 21.2087 28.0407C21.112 28.0852 21.112 28.0852 21.0134 28.1306C20.806 28.2258 20.5981 28.3199 20.3901 28.4138C20.2809 28.4634 20.2809 28.4634 20.1694 28.5141C19.9518 28.6129 19.7339 28.7112 19.5158 28.8091C19.4482 28.8396 19.3807 28.8701 19.311 28.9015C19.2476 28.9297 19.1841 28.9579 19.1187 28.987C19.0351 29.0243 19.0351 29.0243 18.9499 29.0623C18.3805 29.2859 17.7827 29.2969 17.2047 29.1043C16.4052 28.6738 15.9547 28.1348 15.4356 27.4069C15.2475 27.1777 15.093 27.0839 14.7997 27.0442C14.6615 27.0413 14.6615 27.0413 14.5206 27.0383C14.4289 27.0347 14.3373 27.0311 14.2428 27.0275C13.6184 27.1434 13.2824 27.8523 12.9394 28.3389C12.4448 28.9293 11.7999 29.1611 11.0568 29.2602C10.08 29.2142 9.05042 28.5632 8.18299 28.1427C8.02053 28.0648 7.85677 27.9896 7.69289 27.9147C6.93795 27.5613 6.35845 27.1658 6.04487 26.3644C5.89423 25.8303 5.93058 25.3534 6.08942 24.8275C6.29542 24.0876 6.29542 24.0876 6.22307 23.335C5.9339 22.8843 5.58728 22.3509 5.06476 22.1767C4.89123 22.1685 4.71746 22.165 4.54373 22.1642C4.44008 22.1625 4.33642 22.1607 4.22962 22.159C4.01291 22.156 3.79619 22.1543 3.57946 22.1541C2.73889 22.1365 2.06888 21.9847 1.46767 21.3654C1.15672 20.9605 1.01947 20.4932 0.87146 20.0104C0.84154 19.9163 0.81162 19.8222 0.780793 19.7252C0.692254 19.444 0.60618 19.1621 0.520626 18.88C0.495831 18.8002 0.471036 18.7205 0.44549 18.6384C-0.0946618 16.8945 -0.0946618 16.8945 0.186498 16.051C0.69398 15.1086 1.34325 14.6975 2.28552 14.2449C2.65309 14.0607 2.84998 13.9122 3.01545 13.5339C3.30206 12.6452 3.30206 12.6452 3.19365 11.7519C3.00877 11.5214 2.81188 11.3082 2.60788 11.0944C2.02659 10.4663 1.53458 9.80648 1.56212 8.91715C1.66739 8.17769 2.08477 7.59671 2.54767 7.03513C2.65988 6.89556 2.77195 6.75587 2.88388 6.61608C2.93749 6.54952 2.9911 6.48296 3.04634 6.41438C3.23551 6.17459 3.40944 5.92733 3.58346 5.67634C4.01625 5.07561 4.51445 4.56295 5.24297 4.35654C6.28536 4.23825 7.01944 4.56228 7.8697 5.13443C8.16367 5.28255 8.38833 5.32499 8.7179 5.33665C8.95154 5.25434 9.13885 5.17479 9.35274 5.05821C9.40569 5.03179 9.45864 5.00537 9.51319 4.97816C9.87683 4.78871 10.1614 4.59365 10.4108 4.26744C10.4913 3.99581 10.5209 3.72445 10.55 3.44326C10.6549 2.63915 10.7961 1.92192 11.3909 1.32711C11.8397 1.00669 12.2182 0.784173 12.7798 0.775321ZM12.5957 2.77667C12.4686 3.00482 12.4077 3.15244 12.3794 3.4088C12.3701 3.48053 12.3608 3.55225 12.3512 3.62616C12.339 3.73685 12.339 3.73685 12.3265 3.84978C12.231 4.70141 12.0047 5.33605 11.3909 5.96035C11.1645 6.11871 10.928 6.24941 10.6837 6.37801C10.5914 6.42841 10.5914 6.42841 10.4973 6.47982C10.3208 6.57567 10.1434 6.66936 9.96531 6.76226C9.86963 6.81245 9.77396 6.86265 9.67538 6.91436C9.04542 7.21097 8.33272 7.2046 7.66539 7.02956C7.42398 6.92566 7.19673 6.79924 6.96721 6.67177C6.90815 6.63926 6.84909 6.60676 6.78824 6.57327C6.66933 6.50716 6.55117 6.43967 6.43388 6.3707C6.10312 6.18368 6.10312 6.18368 5.73228 6.1553C5.47316 6.23975 5.38266 6.32543 5.21129 6.53464C5.13181 6.63116 5.13181 6.63116 5.05071 6.72963C4.7716 7.08812 4.50116 7.45213 4.23501 7.82033C4.12598 7.97056 4.01681 8.12069 3.9075 8.27071C3.86014 8.33616 3.81279 8.40162 3.76399 8.46905C3.63916 8.63335 3.54787 8.767 3.55006 8.8561C3.55902 9.21957 3.49937 9.37459 3.73487 9.65664C3.81171 9.72326 3.88854 9.78988 3.96771 9.85851C4.60708 10.4585 5.02913 11.1271 5.07973 12.0143C5.08681 13.1671 4.94968 14.198 4.21483 15.1343C3.6488 15.6848 2.87349 16.0262 2.18137 16.3922C2.03677 16.4648 2.03677 16.4648 1.94624 16.5634C1.9181 16.9573 1.92837 17.2667 2.06179 17.6388C2.16995 17.9495 2.27111 18.261 2.36668 18.5758C2.39275 18.6604 2.41883 18.7451 2.44569 18.8323C2.49941 19.0071 2.55254 19.182 2.6051 19.3571C2.63117 19.4411 2.65724 19.5251 2.6841 19.6116C2.70713 19.6872 2.73016 19.7628 2.75389 19.8407C2.84635 20.0599 2.90951 20.1689 3.10455 20.3056C3.34133 20.3449 3.34133 20.3449 3.60922 20.3386C3.75928 20.341 3.75928 20.341 3.91237 20.3433C4.12167 20.3442 4.33096 20.3446 4.54025 20.3447C5.50375 20.3607 6.22408 20.6272 6.93588 21.2857C7.72159 22.1547 8.12034 22.8419 8.11507 24.0193C8.0913 24.3561 8.00784 24.6208 7.8878 24.9333C7.78239 25.2513 7.78733 25.4964 7.82689 25.8298C8.09321 26.1744 8.42022 26.3036 8.81814 26.448C9.43283 26.6817 10.0132 26.9567 10.5949 27.2635C10.9032 27.4086 11.0533 27.4177 11.3909 27.3446C11.6666 27.0432 11.8813 26.7061 12.1037 26.3644C12.5059 25.8137 12.955 25.4725 13.6184 25.2952C13.9102 25.2659 14.1996 25.2623 14.4927 25.2618C14.5686 25.2596 14.6445 25.2575 14.7226 25.2552C15.539 25.2515 16.144 25.5418 16.738 26.0905C17.0058 26.3699 17.244 26.6694 17.4797 26.976C17.6253 27.171 17.6253 27.171 17.8062 27.3446C18.5927 27.3118 19.3032 26.9116 20.0058 26.5872C20.0609 26.5619 20.1159 26.5365 20.1726 26.5104C20.554 26.3316 20.9176 26.1317 21.2811 25.9189C21.3003 25.39 21.2555 24.9132 21.1029 24.4042C21.0735 24.3748 21.0887 24.0781 21.0584 24.0478C20.9373 23.0961 21.0735 22.6806 21.6375 21.9094C22.1788 21.263 22.8234 20.5566 23.6868 20.3947C23.864 20.3847 24.0415 20.3789 24.219 20.3759C24.3212 20.3734 24.4233 20.3708 24.5286 20.3682C24.7437 20.3636 24.9588 20.3596 25.1739 20.3564C25.3269 20.3523 25.3269 20.3523 25.4831 20.348C25.5765 20.3463 25.6699 20.3445 25.7661 20.3427C26.0038 20.3243 26.0038 20.3243 26.1625 20.1882C26.3402 19.9421 26.4099 19.6581 26.4935 19.37C26.5127 19.3064 26.5318 19.2428 26.5516 19.1773C26.6847 18.7316 26.81 18.2838 26.9275 17.8337C26.9836 17.6326 26.9836 17.6326 27.0949 17.343C27.1849 17.0131 27.1698 16.802 27.0727 16.4743C26.7127 16.1999 26.3293 16.0122 25.9199 15.8227C25.1198 15.4346 24.6413 14.9838 24.3105 14.1576C24.2773 14.0798 24.2441 14.0019 24.2099 13.9217C23.8654 13.0261 23.79 12.1004 24.1268 11.1895C24.3497 10.7162 24.6547 10.3616 25.015 9.98625C25.2827 9.707 25.5247 9.44773 25.5931 9.05556C25.5427 8.70555 25.3449 8.49449 25.1236 8.23242C25.0336 8.1224 24.9437 8.01229 24.8538 7.90212C24.8079 7.84635 24.762 7.79057 24.7147 7.7331C24.582 7.56927 24.4537 7.40298 24.3269 7.23456C24.2875 7.1823 24.2482 7.13005 24.2076 7.0762C24.099 6.93135 23.9906 6.78642 23.8821 6.64149C23.64 6.34806 23.64 6.34806 23.3304 6.13856C22.9268 6.14993 22.6516 6.36052 22.3225 6.57849C21.5576 7.06452 20.8564 7.22466 19.9446 7.11866C19.4282 6.97108 18.966 6.72181 18.5023 6.45598C18.4412 6.42192 18.3802 6.38787 18.3173 6.35278C17.5813 5.93555 17.1312 5.51936 16.8261 4.71294C16.7477 4.34893 16.6969 3.98168 16.6579 3.61152C16.6457 3.50652 16.6457 3.50652 16.6332 3.3994C16.6273 3.33705 16.6214 3.2747 16.6153 3.21045C16.5299 2.92263 16.4247 2.77823 16.2024 2.57452C15.9312 2.52929 15.7105 2.51192 15.4394 2.51535C15.3656 2.51493 15.2918 2.5145 15.2158 2.51406C15.06 2.51376 14.9042 2.51458 14.7485 2.51644C14.5102 2.51883 14.2723 2.51646 14.034 2.51361C13.8825 2.51391 13.731 2.51448 13.5795 2.51535C13.4728 2.514 13.4728 2.514 13.364 2.51262C13.0206 2.51986 12.8529 2.54123 12.5957 2.77667Z" fill="white"/>
<path d="M18.4729 10.291C19.4361 11.0503 20.0825 11.9633 20.5685 13.0907C20.6055 13.1752 20.6424 13.2597 20.6805 13.3468C21.2288 14.8192 21.0151 16.5862 20.4508 18.0236C20.1598 18.6494 19.7679 19.1622 19.3211 19.6841C19.2673 19.7568 19.2136 19.8295 19.1582 19.9044C18.9264 20.1742 18.6641 20.3731 18.3744 20.5751C18.3189 20.614 18.2634 20.6529 18.2063 20.693C16.7959 21.6653 15.1656 22.0154 13.4609 21.7752C12.8504 21.6535 12.299 21.4871 11.7475 21.1988C11.6829 21.1679 11.6184 21.137 11.5519 21.1052C9.95749 20.2969 8.90809 18.756 8.36167 17.1002C7.8823 15.5628 8.14465 13.7495 8.87406 12.3459C9.64577 10.9369 10.9105 9.73391 12.4544 9.22523C14.5784 8.61082 16.7182 8.96598 18.4729 10.291ZM11.1238 12.3445C10.2011 13.4402 9.95698 14.6258 10.0385 16.0224C10.072 16.4123 10.1593 16.7455 10.3219 17.1002C10.3756 17.2187 10.3756 17.2187 10.4305 17.3397C11.0306 18.54 11.9416 19.3587 13.2121 19.7875C14.4158 20.0927 15.6464 20.0158 16.7538 19.4168C17.8803 18.6974 18.6481 17.7308 19.0036 16.4375C19.2312 15.077 19.019 13.8813 18.2675 12.7329C17.5808 11.7909 16.6841 11.1956 15.5555 10.8993C13.8129 10.6408 12.3524 11.0456 11.1238 12.3445Z" fill="white"/>
</svg>
