<svg width="21" height="17" viewBox="0 0 21 17" fill="none" xmlns="http://www.w3.org/2000/svg">
<circle cx="6.95119" cy="4.82253" r="1.79919" fill="white" stroke="#78BE20" stroke-width="0.7"/>
<circle cx="14" cy="3.55542" r="2.35" fill="white" stroke="#78BE20" stroke-width="0.7"/>
<path d="M15.5156 5.92737C15.8943 5.93964 16.2414 5.96243 16.4463 6.00842L16.8467 6.1051C16.9507 6.13309 17.0294 6.15813 17.0938 6.18323C17.2265 6.23499 17.3192 6.30004 17.3779 6.33362C17.4505 6.37509 17.4964 6.43604 17.5049 6.4469C17.5247 6.47227 17.5433 6.50116 17.5605 6.52795C17.5956 6.58243 17.6374 6.65273 17.6826 6.73401C17.7738 6.89796 17.8909 7.12347 18.0244 7.38928C18.2921 7.92209 18.6306 8.62968 18.9648 9.35999C19.2989 10.09 19.6309 10.8469 19.8838 11.4781C20.0101 11.7934 20.118 12.0809 20.1973 12.3199C20.2729 12.5481 20.3334 12.7637 20.3457 12.9205C20.3938 13.5359 20.0256 13.9621 19.585 14.1393C19.1915 14.2974 18.6858 14.2789 18.3213 13.9899L18.251 13.9283C18.1444 13.8277 18.0474 13.6681 17.9639 13.5133C17.874 13.3468 17.7764 13.1422 17.6777 12.9166C17.4799 12.4647 17.265 11.9102 17.0674 11.3756C17.0616 11.3599 17.0556 11.3444 17.0498 11.3287L17.1162 15.9957L17.1211 16.3512H3.25098L3.30566 15.9537L3.91309 11.4811C3.86524 11.5632 3.81849 11.6476 3.76953 11.7311C3.49864 12.1931 3.21379 12.6693 2.97266 13.0563C2.85219 13.2496 2.74169 13.4233 2.64746 13.5621C2.60289 13.6278 2.55775 13.6905 2.51562 13.7467L2.39844 13.8893C2.05992 14.2399 1.52481 14.2026 1.17578 14.0065C0.987839 13.9008 0.817517 13.7336 0.723633 13.5065C0.627942 13.2748 0.624002 13.0094 0.72168 12.735L0.801758 12.5348C1.03679 11.983 1.5976 10.8757 2.15918 9.84338C2.48317 9.24782 2.81322 8.66508 3.0918 8.21252C3.23076 7.98677 3.36032 7.7891 3.4707 7.63635C3.52571 7.56024 3.57861 7.49057 3.62891 7.43323C3.67386 7.38199 3.73608 7.31751 3.80859 7.27209L4.08301 7.1012C4.16375 7.05228 4.236 7.01051 4.30664 6.9762C4.46253 6.90048 4.60644 6.85881 4.81055 6.81506L4.94238 6.79553C5.10465 6.77674 5.35349 6.7616 5.62988 6.74866C6.01539 6.73061 6.49714 6.71571 6.98145 6.70959C7.46515 6.7035 7.95559 6.7062 8.3584 6.72131C8.55955 6.72886 8.74308 6.73913 8.89453 6.75452C9.03485 6.76878 9.18123 6.78995 9.28809 6.82874L9.40234 6.87561C9.66413 6.99331 9.89844 7.17276 10.0635 7.31702C10.0758 7.32781 10.0869 7.33966 10.0986 7.35022C10.1558 7.28385 10.2216 7.21007 10.293 7.13342C10.5473 6.86046 10.9106 6.51287 11.2832 6.32483L11.5107 6.21448C11.7209 6.11862 11.9006 6.06237 12.2305 6.00549C12.3565 5.98376 12.6442 5.96546 12.9854 5.95081C13.3379 5.93566 13.7762 5.92278 14.2227 5.9176C14.6686 5.91244 15.1259 5.91475 15.5156 5.92737Z" fill="white" stroke="#78BE20" stroke-width="0.7"/>
<circle cx="10.5378" cy="11.1743" r="1.90278" fill="#D40F7D"/>
<path d="M6.43106 11.7766C6.61054 11.6508 6.95126 11.626 7.1566 11.7082C7.36194 11.7903 9.22365 13.7414 10.5652 13.7068C12.1095 13.6669 13.6589 11.7355 13.9464 11.6534C14.2339 11.5713 14.4937 11.5672 14.713 11.7766C14.889 11.9447 14.9643 12.1219 14.9731 12.3652C14.9807 12.5791 14.8772 12.817 14.7951 12.8991C14.713 12.9812 12.5911 15.0483 12.5911 15.0483V16.4446H8.48443V15.0483C8.48443 15.0483 6.39001 12.9812 6.25311 12.7896C6.1162 12.598 6.09086 12.4577 6.1299 12.242C6.16847 12.029 6.25379 11.9009 6.43106 11.7766Z" fill="#D40F7D"/>
</svg>
