<svg width="31" height="28" viewBox="0 0 31 28" fill="none" xmlns="http://www.w3.org/2000/svg">
<path d="M10.0947 1.38139C10.4973 1.58815 10.9073 1.77707 11.3194 1.96381C11.509 2.04975 11.6984 2.1361 11.8877 2.22246C12.7039 2.59434 13.5206 2.9651 14.3396 3.33057C14.6382 3.46413 14.9353 3.59929 15.2288 3.74372C15.3223 3.78935 15.4159 3.83498 15.5123 3.88199C15.5913 3.92173 15.6702 3.96147 15.7516 4.00242C16.1701 4.14546 16.5203 3.9403 16.9049 3.76443C16.9565 3.74094 17.0081 3.71744 17.0613 3.69324C17.2316 3.61557 17.4017 3.53725 17.5717 3.4589C17.6915 3.40407 17.8113 3.34926 17.9311 3.29447C18.9136 2.84427 19.8912 2.38385 20.8683 1.92215C21.514 1.61725 22.1607 1.31528 22.8118 1.02234C22.8769 0.99302 22.942 0.963701 23.0091 0.933493C23.5704 0.682886 23.9769 0.543985 24.5806 0.752176C25.0152 0.977489 25.2703 1.15953 25.4586 1.62239C25.552 1.94094 25.5384 2.25955 25.5333 2.589C25.533 2.66692 25.5328 2.74484 25.5326 2.82512C25.532 2.99351 25.5309 3.1619 25.5294 3.33029C25.5271 3.59705 25.5267 3.86375 25.5269 4.13052C25.5272 4.88868 25.5253 5.6468 25.5193 6.40493C25.5157 6.86939 25.5153 7.33376 25.517 7.79822C25.517 7.97486 25.5157 8.1515 25.5133 8.32811C25.51 8.57531 25.5107 8.8222 25.5122 9.06941C25.5103 9.14196 25.5083 9.21451 25.5063 9.28926C25.5119 9.60033 25.5255 9.79089 25.7318 10.0327C25.9021 10.1849 25.9021 10.1849 26.0787 10.3134C26.3308 10.5042 26.5108 10.7427 26.7011 10.9929C26.7394 11.0427 26.7777 11.0926 26.8172 11.1439C28.1644 12.921 28.6003 14.9684 28.3218 17.1716C28.1521 18.2699 27.707 19.6568 26.8948 20.469C26.9081 20.8112 27.1415 20.987 27.3746 21.2145C27.4148 21.2541 27.455 21.2937 27.4964 21.3346C27.6249 21.4612 27.7543 21.587 27.8837 21.7127C28.0525 21.8777 28.2209 22.043 28.389 22.2085C28.4298 22.2486 28.4706 22.2886 28.5127 22.3299C28.7887 22.6029 29.0469 22.8859 29.2984 23.1814C29.458 23.3632 29.6297 23.5291 29.8049 23.6957C30.3687 24.2332 30.7622 24.7019 30.8173 25.5017C30.7955 26.0346 30.5858 26.4855 30.2212 26.8707C29.7537 27.2656 29.2558 27.3732 28.6531 27.3448C27.6342 27.2234 26.8767 26.1748 26.1914 25.4899C26.1173 25.4168 26.0432 25.3437 25.9668 25.2684C25.8619 25.1637 25.8619 25.1637 25.7549 25.057C25.6918 24.9942 25.6286 24.9313 25.5636 24.8666C25.4268 24.71 25.4938 24.7771 25.3452 24.6285C25.3044 24.5877 25.3044 24.5877 25.2636 24.5469C25.0759 24.3591 24.914 24.194 24.7386 23.9913C24.6743 23.9188 24.61 23.8462 24.5437 23.7715C24.4429 23.6558 24.3429 23.5395 24.2455 23.421C24.1407 23.2935 24.1407 23.2935 23.9587 23.1604C23.6413 23.153 23.3941 23.2729 23.1075 23.3949C22.3829 23.6914 21.6403 23.8154 20.8623 23.8294C19.9683 23.8469 19.2904 24.0688 18.4943 24.4654C18.4169 24.5037 18.4169 24.5037 18.3378 24.5428C18.0959 24.6632 17.8548 24.7854 17.6137 24.9076C16.9003 25.2591 16.2792 25.4693 15.4766 25.3625C15.2555 25.2873 15.2555 25.2873 15.0297 25.1885C14.9445 25.1516 14.8594 25.1147 14.7717 25.0767C14.6813 25.0364 14.591 24.9962 14.4979 24.9547C14.4048 24.9135 14.3117 24.8722 14.2158 24.8297C13.9186 24.6973 13.622 24.5637 13.3255 24.4297C12.7274 24.1594 12.1287 23.891 11.5249 23.6338C11.1426 23.4709 10.7645 23.3034 10.3894 23.1247C9.94844 22.9168 9.50517 22.7147 9.05899 22.5181C9.00423 22.4938 8.94947 22.4695 8.89305 22.4444C8.75044 22.382 8.60657 22.3225 8.46259 22.2633C8.38999 22.2323 8.38999 22.2323 8.31592 22.2007C8.03385 22.1709 7.85065 22.2928 7.5989 22.4171C7.48868 22.4707 7.37846 22.5243 7.26824 22.5778C7.21026 22.6064 7.15227 22.6351 7.09253 22.6645C6.78945 22.8132 6.48385 22.9566 6.17863 23.1008C6.05052 23.1617 5.92242 23.2226 5.79433 23.2836C5.32181 23.5082 4.84862 23.7315 4.37542 23.9547C3.99656 24.1336 3.61884 24.3146 3.24188 24.4975C3.08591 24.5718 2.92991 24.6461 2.77388 24.7202C2.70716 24.7534 2.64045 24.7866 2.57171 24.8208C2.11446 25.0352 1.70785 25.107 1.20387 25.0363C0.9901 24.9407 0.9901 24.9407 0.841957 24.812C0.791597 24.7703 0.741238 24.7287 0.689353 24.6858C0.3723 24.3666 0.215355 24.0992 0.214222 23.6441C0.213859 23.5763 0.213495 23.5085 0.213121 23.4387C0.213136 23.3642 0.213151 23.2897 0.213166 23.213C0.212866 23.1338 0.212567 23.0547 0.212258 22.9732C0.211356 22.7068 0.211044 22.4405 0.210733 22.1741C0.210222 21.9836 0.20968 21.7932 0.209109 21.6027C0.207689 21.0843 0.206828 20.566 0.206156 20.0477C0.205736 19.724 0.205241 19.4004 0.204728 19.0767C0.203352 18.1807 0.202158 17.2847 0.201568 16.3886C0.201412 16.1561 0.201256 15.9237 0.201096 15.6912C0.201057 15.6334 0.201017 15.5756 0.200977 15.5161C0.200299 14.5797 0.198232 13.6434 0.195584 12.7071C0.192887 11.7458 0.191418 10.7846 0.191158 9.82332C0.190981 9.28359 0.190231 8.74387 0.188184 8.20413C0.18629 7.69651 0.185938 7.1889 0.186778 6.68127C0.186818 6.49485 0.186299 6.30843 0.185183 6.12201C0.183745 5.8677 0.184314 5.61347 0.185389 5.35916C0.184047 5.24826 0.184047 5.24826 0.182678 5.13511C0.188139 4.60112 0.304865 4.32684 0.683339 3.94129C1.21534 3.5408 1.81444 3.27956 2.41706 3.00523C2.5332 2.95168 2.6493 2.89806 2.76537 2.84437C3.00084 2.7356 3.23649 2.62727 3.47234 2.51935C3.78841 2.3747 4.10397 2.22898 4.41939 2.08292C4.84314 1.88675 5.26716 1.69117 5.69141 1.49608C6.04854 1.33164 6.40533 1.16647 6.76213 1.00129C8.0533 0.410244 8.8997 0.76758 10.0947 1.38139Z" fill="white"/>
<path d="M24.346 10.9486C25.6022 11.9343 26.3988 13.2703 26.6911 14.8405C26.724 15.1744 26.7302 15.5041 26.7268 15.8395C26.7262 15.9283 26.7255 16.0171 26.7248 16.1085C26.6934 17.6155 26.1937 18.8202 25.2231 19.9786C25.1743 20.0436 25.1255 20.1086 25.0753 20.1755C24.2011 21.209 22.8111 21.949 21.4714 22.0992C19.569 22.2247 17.9148 21.903 16.4364 20.64C15.2028 19.4915 14.433 18.0244 14.3548 16.3248C14.3037 14.6203 14.7013 13.0633 15.8795 11.7769C16.0271 11.6242 16.1784 11.4791 16.3332 11.3334C16.3967 11.2734 16.4602 11.2134 16.5256 11.1515C18.78 9.19592 21.984 9.28864 24.346 10.9486Z" fill="#78BE20"/>
<path d="M7.35972 2.6875C7.35972 8.63557 7.35972 14.5836 7.35972 20.712C6.60612 21.0619 5.85252 21.4117 5.07608 21.7722C4.58459 22.016 4.58459 22.016 4.09451 22.2625C3.68019 22.4717 3.26192 22.6726 2.84341 22.8733C2.73043 22.9279 2.73043 22.9279 2.61516 22.9836C2.54519 23.017 2.47522 23.0504 2.40312 23.0848C2.34053 23.1148 2.27794 23.1448 2.21344 23.1758C2.05841 23.2403 2.05841 23.2403 1.89529 23.2403C1.89529 17.2653 1.89529 11.2903 1.89529 5.13426C2.86421 4.69017 2.86421 4.69017 3.8527 4.23711C4.71287 3.8385 5.56954 3.43286 6.4253 3.02489C6.48756 2.9952 6.54982 2.96552 6.61397 2.93494C6.73046 2.87876 6.84566 2.8198 6.95936 2.75817C7.11505 2.6875 7.11505 2.6875 7.35972 2.6875Z" fill="#78BE20"/>
<path d="M8.992 2.77155C9.45868 2.92711 9.86159 3.06791 10.2969 3.27619C10.3483 3.30058 10.3997 3.32497 10.4527 3.3501C10.562 3.40201 10.6713 3.45409 10.7805 3.50633C11.0694 3.64451 11.359 3.78123 11.6487 3.91783C11.7068 3.94523 11.7649 3.97264 11.8248 4.00088C12.5892 4.3603 13.3637 4.69644 14.1385 5.03295C14.3769 5.13765 14.6141 5.24473 14.8511 5.35271C14.9303 5.38882 15.0096 5.42492 15.0913 5.46212C15.1808 5.50292 15.1808 5.50292 15.272 5.54454C15.2949 6.17849 15.3105 6.81234 15.3213 7.44661C15.3258 7.66204 15.3319 7.87745 15.3397 8.09279C15.4099 10.0823 15.3536 10.3565 14.969 10.56C14.7827 10.642 14.6603 10.6827 14.3749 11.009C14.2065 11.2086 14.0733 11.4211 13.9416 11.6461C13.8917 11.7292 13.8917 11.7292 13.8409 11.8139C12.7864 13.6101 12.417 15.6915 12.904 17.7344C13.305 19.1055 13.9763 20.8848 15.2567 21.6708C15.504 21.9279 15.4773 22.1183 15.471 22.4648C15.4676 22.5398 15.4641 22.6149 15.4606 22.6922C15.4588 22.7686 15.4569 22.8449 15.455 22.9235C15.4503 23.1116 15.4436 23.2995 15.4351 23.4874C14.9761 23.3496 14.5531 23.1494 14.12 22.9471C13.1149 22.4818 12.1033 22.0318 11.0903 21.5838C11.0296 21.5569 10.9689 21.53 10.9063 21.5023C10.7943 21.4527 10.6822 21.4032 10.57 21.3537C10.041 21.1195 9.51755 20.8754 8.992 20.6329C8.992 14.7386 8.992 8.8444 8.992 2.77155Z" fill="#78BE20"/>
<path d="M23.9177 2.44385C23.9177 4.51625 23.9177 6.58866 23.9177 8.72386C23.506 8.64151 23.1181 8.52127 22.7206 8.38982C21.9863 8.15354 21.2845 8.0412 20.5127 8.04591C20.395 8.04651 20.395 8.04651 20.275 8.04712C19.3242 8.06268 18.5047 8.26909 17.6247 8.6353C17.3931 8.72386 17.3931 8.72386 16.9853 8.80542C16.9853 7.72885 16.9853 6.65227 16.9853 5.54308C17.7244 5.21174 17.7244 5.21174 17.9487 5.11137C18.4155 4.90169 18.8797 4.68681 19.3432 4.4699C19.9515 4.18543 20.5618 3.90525 21.1721 3.62509C21.37 3.53426 21.5678 3.44336 21.7657 3.35246C22.0173 3.23684 22.2691 3.12139 22.5209 3.00608C22.729 2.91074 22.9368 2.81476 23.1444 2.71823C23.2251 2.68088 23.3058 2.64353 23.3889 2.60505C23.4908 2.55753 23.4908 2.55753 23.5948 2.50904C23.7546 2.44385 23.7546 2.44385 23.9177 2.44385Z" fill="#78BE20"/>
</svg>
