<svg width="27" height="28" viewBox="0 0 27 28" fill="none" xmlns="http://www.w3.org/2000/svg">
<path d="M14.4832 1.27168C15.0723 1.6779 15.4462 2.14561 15.6544 2.83325C15.7334 3.27594 15.7432 3.70361 15.7414 4.15141C15.7414 4.22688 15.7414 4.30235 15.7414 4.38011C15.7413 4.6281 15.7407 4.87607 15.7401 5.12405C15.74 5.29658 15.7399 5.4691 15.7398 5.64162C15.7395 6.0946 15.7387 6.54757 15.7379 7.00055C15.7371 7.46321 15.7367 7.92588 15.7363 8.38855C15.7355 9.29555 15.7341 10.2026 15.7325 11.1096C15.8328 11.1087 15.9332 11.1078 16.0366 11.1069C16.9832 11.099 17.9297 11.0932 18.8763 11.0893C19.363 11.0873 19.8496 11.0845 20.3362 11.0801C20.806 11.0759 21.2758 11.0735 21.7456 11.0725C21.9247 11.0718 22.1037 11.0704 22.2828 11.0683C22.534 11.0654 22.7851 11.0651 23.0363 11.0652C23.11 11.0638 23.1837 11.0624 23.2596 11.061C23.8705 11.0657 24.2321 11.2754 24.6761 11.682C27.0115 14.3114 27.0115 14.3114 26.9976 15.2321C26.9303 15.7613 26.5508 16.1988 26.2194 16.5946C26.1355 16.6968 26.0517 16.7992 25.9681 16.9017C25.927 16.9519 25.886 17.0021 25.8437 17.0538C25.6762 17.2623 25.5186 17.4769 25.3605 17.6925C24.409 18.9659 24.409 18.9659 23.7746 19.1516C23.505 19.1831 23.2383 19.1813 22.9671 19.1782C22.8878 19.1782 22.8086 19.1783 22.7269 19.1783C22.4662 19.1782 22.2056 19.1763 21.9449 19.1745C21.7636 19.1741 21.5824 19.1737 21.4011 19.1735C20.925 19.1726 20.4489 19.1703 19.9729 19.1677C19.4011 19.1649 18.8293 19.1638 18.2575 19.1624C17.3898 19.1602 16.5221 19.1557 15.6544 19.1516C15.6544 21.2129 15.6544 23.2742 15.6544 25.3979C16.5047 25.3979 17.355 25.3979 18.231 25.3979C18.685 25.7611 18.685 25.7611 18.7208 26.0216C18.7363 26.3756 18.741 26.518 18.5092 26.8033C18.4431 26.8548 18.3771 26.9064 18.3091 26.9595C18.2833 26.9852 18.2576 27.011 18.231 27.0375C18.1045 27.0457 17.9776 27.0484 17.8508 27.049C17.7684 27.0496 17.6861 27.0501 17.6013 27.0507C17.4647 27.051 17.4647 27.051 17.3253 27.0514C17.2299 27.0519 17.1346 27.0524 17.0364 27.0529C16.774 27.0542 16.5117 27.0551 16.2494 27.0557C16.0856 27.0561 15.9217 27.0566 15.7579 27.0571C15.2454 27.0586 14.7329 27.0597 14.2204 27.0604C13.6286 27.0611 13.0368 27.0632 12.445 27.0663C11.9878 27.0687 11.5306 27.0698 11.0734 27.0701C10.8002 27.0703 10.5271 27.071 10.254 27.0729C9.94907 27.0751 9.6442 27.0748 9.3393 27.0742C9.24884 27.0752 9.15837 27.0762 9.06516 27.0773C8.45327 27.0733 8.45327 27.0733 8.14551 26.8904C7.90523 26.6124 7.84659 26.43 7.84659 26.0616C7.92466 25.7883 7.92466 25.7883 8.39313 25.3979C9.11458 25.3979 9.83602 25.3979 10.5793 25.3979C10.5793 21.2754 10.5793 17.1528 10.5793 12.9054C8.16986 12.927 8.16986 12.927 5.76045 12.9546C5.29279 12.9571 5.29279 12.9571 5.07335 12.9575C4.92119 12.9584 4.76903 12.9603 4.61688 12.9631C3.17148 12.9882 3.17148 12.9882 2.7165 12.6412C2.57167 12.496 2.57167 12.496 2.45918 12.3588C2.39758 12.2928 2.33598 12.2268 2.27252 12.1587C2.22461 12.0959 2.17671 12.0331 2.12734 11.9684C1.8413 11.6041 1.54454 11.2529 1.2392 10.9046C-0.0142326 9.46523 -0.0142326 9.46523 0.0042842 8.71962C0.0700099 8.36366 0.287434 8.10924 0.507219 7.83026C0.550397 7.77319 0.593575 7.71613 0.638061 7.65733C0.774454 7.47892 0.913735 7.30312 1.05377 7.12756C1.10017 7.06838 1.14656 7.00919 1.19437 6.94822C1.50842 6.5503 1.8306 6.15908 2.15662 5.77094C2.19494 5.72448 2.23326 5.67801 2.27273 5.63013C2.57022 5.27925 2.87286 5.01168 3.31804 4.86328C3.54972 4.85612 3.77953 4.85345 4.0112 4.85442C4.08205 4.85441 4.15291 4.8544 4.22592 4.85439C4.46039 4.85444 4.69485 4.85505 4.92932 4.85566C5.09179 4.8558 5.25425 4.85592 5.41672 4.85599C5.84454 4.85629 6.27236 4.85706 6.70018 4.85792C7.13666 4.85872 7.57313 4.85908 8.0096 4.85947C8.86618 4.86031 9.72275 4.86164 10.5793 4.86328C10.5789 4.81617 10.5785 4.76906 10.578 4.72051C10.5763 4.505 10.5752 4.28948 10.5741 4.07396C10.5734 3.99985 10.5728 3.92573 10.572 3.84937C10.5687 2.95405 10.7218 2.31702 11.3601 1.66207C12.2435 0.854653 13.4116 0.684249 14.4832 1.27168Z" fill="white"/>
<path d="M13.5467 2.59973C13.8318 2.76603 13.9694 2.92294 14.0932 3.22436C14.1126 3.40533 14.1126 3.40533 14.1125 3.60909C14.1128 3.68695 14.1131 3.76482 14.1134 3.84504C14.1127 3.97309 14.1127 3.97309 14.112 4.10373C14.1122 4.19455 14.1123 4.28537 14.1124 4.37894C14.1126 4.63106 14.1122 4.88316 14.1114 5.13528C14.1107 5.40714 14.1109 5.67901 14.111 5.95087C14.1111 6.4219 14.1106 6.89293 14.1098 7.36396C14.1085 8.04499 14.1081 8.72603 14.1079 9.40706C14.1075 10.512 14.1065 11.6169 14.105 12.7218C14.1036 13.7952 14.1025 14.8685 14.1018 15.9419C14.1018 16.0081 14.1017 16.0742 14.1017 16.1424C14.1015 16.4742 14.1013 16.8061 14.1011 17.138C14.0995 19.8915 14.0967 22.6451 14.0932 25.3986C13.4491 25.3986 12.805 25.3986 12.1413 25.3986C12.136 22.6129 12.1318 19.8272 12.1293 17.0414C12.129 16.7126 12.1287 16.3837 12.1284 16.0549C12.1284 15.9894 12.1283 15.9239 12.1282 15.8565C12.1272 14.7963 12.1254 13.7361 12.1232 12.676C12.121 11.5882 12.1197 10.5004 12.1193 9.41261C12.1189 8.74135 12.1179 8.07011 12.116 7.39886C12.1148 6.9386 12.1144 6.47833 12.1147 6.01806C12.1149 5.75249 12.1146 5.48693 12.1134 5.22136C12.1122 4.93331 12.1125 4.6453 12.1131 4.35725C12.1124 4.27347 12.1118 4.18969 12.1111 4.10338C12.1144 3.55152 12.1694 3.15568 12.5366 2.72173C12.8722 2.54321 13.1744 2.5385 13.5467 2.59973Z" fill="#78BE20"/>
<path d="M15.6544 12.751C17.5747 12.7165 17.5747 12.7165 18.3955 12.709C18.9548 12.7039 19.5141 12.6978 20.0733 12.6862C20.5244 12.6768 20.9754 12.6717 21.4265 12.6695C21.5983 12.6679 21.7702 12.6648 21.9419 12.6601C23.3593 12.6233 23.3593 12.6233 23.7188 12.9358C23.8986 13.1528 24.032 13.3621 24.1649 13.6098C24.2513 13.7258 24.3394 13.8407 24.4302 13.9532C24.5079 14.0566 24.5854 14.1601 24.6627 14.2637C24.7022 14.3162 24.7418 14.3686 24.7825 14.4226C24.983 14.6905 25.2487 14.9579 25.4142 15.2495C25.3696 15.3017 25.3039 15.3518 25.258 15.4056C25.1947 15.4806 25.128 15.5626 25.0628 15.6398C25.0288 15.679 24.9808 15.7557 24.9457 15.796C24.7505 16.1083 24.6724 16.2645 24.4302 16.6158C23.8987 17.4941 23.8215 17.4043 23.3503 17.5877C22.8102 17.6998 22.2639 17.6662 21.7161 17.6434C21.5408 17.6409 21.3654 17.639 21.19 17.6377C20.7314 17.6326 20.2734 17.6196 19.815 17.6049C19.2634 17.5888 18.7117 17.5828 18.16 17.5751C17.3244 17.5623 16.49 17.5368 15.6544 17.5137C15.6544 15.942 15.6544 14.3703 15.6544 12.751Z" fill="#78BE20"/>
<path d="M4.08186 6.57391C4.14656 6.57419 4.21126 6.57448 4.27792 6.57476C4.3796 6.57475 4.3796 6.57475 4.48334 6.57473C4.70852 6.57478 4.93369 6.57539 5.15887 6.576C5.31456 6.57615 5.47024 6.57626 5.62593 6.57634C6.03656 6.57664 6.44718 6.5774 6.8578 6.57827C7.35002 6.5792 7.84224 6.57956 8.33447 6.58002C9.08302 6.58078 9.83158 6.58227 10.5801 6.58363C10.5801 8.15535 10.5801 9.72706 10.5801 11.3464C8.89671 11.3809 8.89671 11.3809 8.17587 11.3883C7.68507 11.3935 7.1944 11.3995 6.7037 11.4112C6.3078 11.4206 5.91204 11.4257 5.51603 11.4279C5.36542 11.4295 5.21481 11.4326 5.06425 11.4372C3.82512 11.474 3.82512 11.474 3.45083 11.1651C3.25164 10.9489 3.09044 10.7324 2.92845 10.4875C2.80773 10.3385 2.68589 10.1903 2.56246 10.0435C2.47761 9.9384 2.47761 9.9384 2.39105 9.8312C2.16085 9.54917 1.92137 9.27582 1.6792 9.00406C1.80714 8.70264 2.00858 8.47277 2.22087 8.22815C2.29784 8.13839 2.3748 8.04862 2.45175 7.95884C2.51133 7.88964 2.51133 7.88964 2.57211 7.81904C2.77366 7.58413 2.97292 7.34729 3.17245 7.11066C3.62457 6.57475 3.62457 6.57475 4.08186 6.57391Z" fill="#78BE20"/>
<path d="M18.803 14.3349C18.9136 14.335 19.0241 14.3349 19.1346 14.3347C19.366 14.3347 19.5972 14.3363 19.8285 14.3391C20.1244 14.3427 20.4202 14.3428 20.7161 14.3417C20.9443 14.3412 21.1724 14.3422 21.4005 14.3438C21.5096 14.3444 21.6187 14.3445 21.7278 14.3443C21.8804 14.3442 22.0331 14.3464 22.1857 14.3487C22.2724 14.3495 22.3592 14.3502 22.4485 14.3509C22.7348 14.4007 22.8659 14.504 23.0729 14.7039C23.194 14.946 23.1737 15.1395 23.151 15.4067C22.9887 15.6585 22.8543 15.7867 22.6045 15.9532C22.3951 15.9746 22.3951 15.9746 22.1397 15.9771C21.9962 15.979 21.9962 15.979 21.8499 15.9809C21.7454 15.9814 21.6409 15.9818 21.5364 15.9822C21.4291 15.9829 21.3219 15.9836 21.2146 15.9843C20.9897 15.9856 20.7649 15.9862 20.54 15.9864C20.2523 15.9868 19.9647 15.9898 19.677 15.9934C19.4555 15.9957 19.2339 15.9962 19.0123 15.9963C18.9063 15.9966 18.8002 15.9976 18.6942 15.9992C17.7606 16.0125 17.7606 16.0125 17.5052 15.765C17.293 15.4399 17.2558 15.2539 17.2951 14.8601C17.6184 14.2273 18.162 14.3257 18.803 14.3349Z" fill="white"/>
<path d="M4.82249 8.12805C4.90875 8.1273 4.99502 8.12655 5.0839 8.12578C5.22431 8.12528 5.22431 8.12528 5.36757 8.12477C5.46347 8.12433 5.55937 8.12388 5.65818 8.12342C5.86145 8.12268 6.06473 8.12218 6.268 8.12187C6.57903 8.12136 6.89002 8.1187 7.20104 8.11623C7.39832 8.11572 7.5956 8.11531 7.79288 8.11501C7.88601 8.11405 7.97915 8.11308 8.07511 8.11209C8.16211 8.11233 8.24912 8.11256 8.33876 8.1128C8.4151 8.11252 8.49143 8.11223 8.57008 8.11194C8.82326 8.14622 8.96726 8.22442 9.17236 8.37487C9.3807 8.68738 9.39364 8.9443 9.32852 9.31181C9.15818 9.52697 9.02622 9.65815 8.78197 9.78028C8.64452 9.78855 8.50676 9.79189 8.36907 9.79286C8.2828 9.79361 8.19653 9.79436 8.10765 9.79513C7.96724 9.79563 7.96724 9.79563 7.82399 9.79614C7.72808 9.79658 7.63218 9.79703 7.53337 9.79749C7.3301 9.79822 7.12682 9.79873 6.92355 9.79903C6.61253 9.79955 6.30153 9.80221 5.99052 9.80468C5.79324 9.80519 5.59596 9.8056 5.39868 9.8059C5.25897 9.80734 5.25897 9.80734 5.11645 9.80882C5.02944 9.80858 4.94244 9.80835 4.85279 9.80811C4.73829 9.80853 4.73829 9.80853 4.62147 9.80897C4.3683 9.77469 4.22429 9.69648 4.01919 9.54604C3.81085 9.23353 3.79791 8.97661 3.86303 8.6091C4.16181 8.2317 4.35521 8.13132 4.82249 8.12805Z" fill="white"/>
<path d="M21.8654 25.3741C22.0408 25.3728 22.216 25.3694 22.3913 25.3659C22.5032 25.3651 22.6151 25.3645 22.727 25.3639C22.8794 25.3622 22.8794 25.3622 23.0349 25.3605C23.349 25.403 23.4748 25.4878 23.6965 25.7095C23.8315 25.9794 23.8128 26.2732 23.7746 26.5683C23.6345 26.7925 23.5417 26.919 23.3061 27.0368C22.9538 27.057 22.6012 27.058 22.2483 27.0599C22.073 27.0612 21.8978 27.0646 21.7225 27.0681C21.6106 27.0689 21.4987 27.0695 21.3868 27.0701C21.2852 27.0712 21.1835 27.0723 21.0788 27.0735C20.7626 27.0307 20.6405 26.9477 20.4172 26.7245C20.2211 26.4302 20.2197 26.2926 20.2611 25.9437C20.6553 25.2857 21.1787 25.3778 21.8654 25.3741Z" fill="white"/>
</svg>
