<svg width="13" height="13" viewBox="0 0 13 13" fill="none" xmlns="http://www.w3.org/2000/svg">
<rect width="13" height="13" rx="6.5" fill="#EC3A34"/>
<path d="M10 9.48393C10 9.74858 9.73198 10 9.36937 10C9.18018 10 8.97523 9.92061 8.86487 9.80151L6.5 7.26087L4.1509 9.80151C4.02477 9.93384 3.81982 10 3.63063 10C3.26802 10 3 9.74858 3 9.4707C3 9.35161 3.0473 9.23251 3.15766 9.12665L5.69595 6.42722L3.28378 3.87335C3.17342 3.76749 3.12613 3.63516 3.12613 3.51607C3.12613 3.26465 3.40991 3 3.75676 3C3.94595 3 4.13514 3.06616 4.26126 3.19849L6.48423 5.59357L8.70721 3.21172C8.83333 3.06616 9.05405 3 9.25901 3C9.62162 3 9.87387 3.23819 9.87387 3.51607C9.87387 3.64839 9.82658 3.76749 9.71622 3.88658L7.31982 6.44045L9.84234 9.12665C9.9527 9.23251 10 9.35161 10 9.48393Z" fill="white"/>
</svg>
