<svg width="30" height="30" viewBox="0 0 30 30" fill="none" xmlns="http://www.w3.org/2000/svg">
<rect width="30" height="30" rx="15" fill="#78BE20"/>
<path d="M13.752 21.848V16.248H8.18401C7.44801 16.248 6.87201 15.672 6.87201 15C6.87201 14.264 7.44801 13.72 8.18401 13.72H13.752V8.15197C13.752 7.41597 14.296 6.83997 15.032 6.83997C15.768 6.83997 16.312 7.41597 16.312 8.15197V13.72H21.816C22.552 13.72 23.128 14.264 23.128 15C23.128 15.672 22.552 16.248 21.816 16.248H16.312V21.848C16.312 22.584 15.768 23.16 15.032 23.16C14.296 23.16 13.752 22.584 13.752 21.848Z" fill="white"/>
</svg>
